<svg width="20" height="20" viewBox="0 0 20 20" fill="none" xmlns="http://www.w3.org/2000/svg">
<path d="M10.4727 0.49705C10.1708 0.367682 9.82915 0.367682 9.52729 0.49705L1.12729 4.09705C0.68607 4.28614 0.399994 4.71999 0.399994 5.20002C0.399994 5.68006 0.68607 6.1139 1.12729 6.303L4.30044 7.66292C4.41583 7.53218 4.56047 7.4257 4.72729 7.35421L9.52729 5.29706C10.1364 5.036 10.8419 5.31818 11.103 5.92734C11.364 6.53649 11.0819 7.24195 10.4727 7.50301L7.20001 8.90559L9.52729 9.903C9.82915 10.0324 10.1708 10.0324 10.4727 9.903L18.8727 6.303C19.3139 6.1139 19.6 5.68006 19.6 5.20002C19.6 4.71999 19.3139 4.28614 18.8727 4.09705L10.4727 0.49705Z" fill="#111827"/>
<path d="M1.97205 9.2761L3.99999 10.1452V15.0672C3.58867 14.9739 3.16846 14.9041 2.74084 14.8593C2.17712 14.8002 1.73163 14.3547 1.67252 13.7909C1.62455 13.3334 1.59999 12.8693 1.59999 12.3998C1.59999 11.324 1.72889 10.2778 1.97205 9.2761Z" fill="#111827"/>
<path d="M9.15994 17.887C8.35249 17.0955 7.422 16.4301 6.39999 15.9221V11.1738L8.58188 12.1089C9.48746 12.497 10.5125 12.497 11.4181 12.1089L18.0279 9.2761C18.2711 10.2778 18.4 11.324 18.4 12.3998C18.4 12.8693 18.3754 13.3334 18.3275 13.7909C18.2684 14.3547 17.8229 14.8002 17.2591 14.8593C14.7717 15.1201 12.5349 16.2256 10.84 17.887C10.3734 18.3445 9.62657 18.3445 9.15994 17.887Z" fill="#111827"/>
<path d="M5.19999 19.6C5.86274 19.6 6.39999 19.0627 6.39999 18.4V15.9221C5.64563 15.5472 4.8414 15.258 3.99999 15.0672V18.4C3.99999 19.0627 4.53725 19.6 5.19999 19.6Z" fill="#111827"/>
</svg>
