<svg width="24" height="20" viewBox="0 0 24 20" fill="none" xmlns="http://www.w3.org/2000/svg">
<path fill-rule="evenodd" clip-rule="evenodd" d="M0.799999 1.9999C0.799999 1.11625 1.51634 0.399902 2.4 0.399902H21.6C22.4837 0.399902 23.2 1.11625 23.2 1.9999C23.2 2.88356 22.4837 3.5999 21.6 3.5999H2.4C1.51634 3.5999 0.799999 2.88356 0.799999 1.9999Z" fill="#111827"/>
<path fill-rule="evenodd" clip-rule="evenodd" d="M0.799999 9.9999C0.799999 9.11625 1.51634 8.3999 2.4 8.3999H21.6C22.4837 8.3999 23.2 9.11625 23.2 9.9999C23.2 10.8836 22.4837 11.5999 21.6 11.5999H2.4C1.51634 11.5999 0.799999 10.8836 0.799999 9.9999Z" fill="#111827"/>
<path fill-rule="evenodd" clip-rule="evenodd" d="M0.799999 17.9999C0.799999 17.1162 1.51634 16.3999 2.4 16.3999H21.6C22.4837 16.3999 23.2 17.1162 23.2 17.9999C23.2 18.8836 22.4837 19.5999 21.6 19.5999H2.4C1.51634 19.5999 0.799999 18.8836 0.799999 17.9999Z" fill="#111827"/>
</svg>
