<svg width="17" height="21" viewBox="0 0 17 21" fill="none" xmlns="http://www.w3.org/2000/svg">
<path d="M1.80001 2.80002C1.80001 1.47454 2.87452 0.400024 4.20001 0.400024H9.70295C10.3395 0.400024 10.9499 0.652881 11.4 1.10297L15.4971 5.20002C15.9472 5.65011 16.2 6.26056 16.2 6.89708V17.2C16.2 18.5255 15.1255 19.6 13.8 19.6H11.9667C13.1068 18.3262 13.8 16.6441 13.8 14.8C13.8 10.8236 10.5765 7.60002 6.60001 7.60002C4.75596 7.60002 3.07382 8.29327 1.80001 9.43337V2.80002Z" fill="#111827"/>
<path fill-rule="evenodd" clip-rule="evenodd" d="M6.60001 10C3.94904 10 1.80001 12.1491 1.80001 14.8C1.80001 15.6897 2.04276 16.5237 2.46477 17.2382L0.951478 18.7515C0.482849 19.2201 0.482849 19.9799 0.951478 20.4486C1.42011 20.9172 2.17991 20.9172 2.64853 20.4486L4.16182 18.9353C4.87635 19.3573 5.71034 19.6 6.60001 19.6C9.25097 19.6 11.4 17.451 11.4 14.8C11.4 12.1491 9.25097 10 6.60001 10ZM4.20001 14.8C4.20001 13.4745 5.27452 12.4 6.60001 12.4C7.92549 12.4 9.00001 13.4745 9.00001 14.8C9.00001 16.1255 7.92549 17.2 6.60001 17.2C5.93693 17.2 5.33858 16.9327 4.90295 16.4971C4.46732 16.0615 4.20001 15.4631 4.20001 14.8Z" fill="#111827"/>
</svg>
