<svg width="16" height="20" viewBox="0 0 16 20" fill="none" xmlns="http://www.w3.org/2000/svg">
<path d="M9.29289 1.29289L8.58579 2L8.58579 2L9.29289 1.29289ZM14.7071 6.70711L15.4142 6L14.7071 6.70711ZM6 18C5.44772 18 5 18.4477 5 19C5 19.5523 5.44772 20 6 20V18ZM0 14C0 14.5523 0.447715 15 1 15C1.55228 15 2 14.5523 2 14H0ZM0.292893 18.2929C-0.0976311 18.6834 -0.0976311 19.3166 0.292893 19.7071C0.683417 20.0976 1.31658 20.0976 1.70711 19.7071L0.292893 18.2929ZM3 2H8.58579V0H3V2ZM14 7.41421V17H16V7.41421H14ZM8.58579 2L14 7.41421L15.4142 6L10 0.585786L8.58579 2ZM16 7.41421C16 6.88378 15.7893 6.37507 15.4142 6L14 7.41421H14H16ZM8.58579 2V2L10 0.585787C9.62493 0.210713 9.11622 0 8.58579 0V2ZM13 20C14.6569 20 16 18.6569 16 17H14C14 17.5523 13.5523 18 13 18V20ZM2 3C2 2.44772 2.44772 2 3 2V0C1.34315 0 0 1.34315 0 3H2ZM13 18H6V20H13V18ZM2 14V3H0V14H2ZM10 12C10 13.1046 9.10457 14 8 14V16C10.2091 16 12 14.2091 12 12H10ZM6 12C6 10.8954 6.89543 10 8 10V8C5.79086 8 4 9.79086 4 12H6ZM8 10C9.10457 10 10 10.8954 10 12H12C12 9.79086 10.2091 8 8 8V10ZM5.17157 13.4142L0.292893 18.2929L1.70711 19.7071L6.58579 14.8284L5.17157 13.4142ZM8 14C7.44744 14 6.94881 13.7772 6.58579 13.4142L5.17157 14.8284C5.89434 15.5512 6.89571 16 8 16V14ZM6.58579 13.4142C6.22276 13.0512 6 12.5526 6 12H4C4 13.1043 4.44881 14.1057 5.17157 14.8284L6.58579 13.4142Z" fill="#666666"/>
</svg>
