<svg width="78" height="77" viewBox="0 0 78 77" fill="none" xmlns="http://www.w3.org/2000/svg">
<g filter="url(#filter0_d_37_2)">
<path d="M29.5549 17.0689C32.5278 7.91924 45.4722 7.91924 48.4451 17.0689V17.0689C49.7746 21.1607 53.5877 23.9311 57.8901 23.9311V23.9311C67.5106 23.9311 71.5106 36.2419 63.7275 41.8967V41.8967C60.2467 44.4256 58.7903 48.9082 60.1198 53V53C63.0927 62.1496 52.6205 69.7581 44.8374 64.1033V64.1033C41.3566 61.5744 36.6434 61.5744 33.1626 64.1033V64.1033C25.3795 69.7581 14.9073 62.1496 17.8802 53V53C19.2097 48.9082 17.7533 44.4256 14.2725 41.8967V41.8967C6.48938 36.2419 10.4894 23.9311 20.1099 23.9311V23.9311C24.4123 23.9311 28.2254 21.1607 29.5549 17.0689V17.0689Z" fill="#EFF334"/>
</g>
<defs>
<filter id="filter0_d_37_2" x="0.15979" y="0.206665" width="77.6804" height="75.8384" filterUnits="userSpaceOnUse" color-interpolation-filters="sRGB">
<feFlood flood-opacity="0" result="BackgroundImageFix"/>
<feColorMatrix in="SourceAlpha" type="matrix" values="0 0 0 0 0 0 0 0 0 0 0 0 0 0 0 0 0 0 127 0" result="hardAlpha"/>
<feOffset/>
<feGaussianBlur stdDeviation="5"/>
<feComposite in2="hardAlpha" operator="out"/>
<feColorMatrix type="matrix" values="0 0 0 0 0 0 0 0 0 0 0 0 0 0 0 0 0 0 0.5 0"/>
<feBlend mode="normal" in2="BackgroundImageFix" result="effect1_dropShadow_37_2"/>
<feBlend mode="normal" in="SourceGraphic" in2="effect1_dropShadow_37_2" result="shape"/>
</filter>
</defs>
</svg>
