<svg width="81" height="32" viewBox="0 0 81 32" fill="none" xmlns="http://www.w3.org/2000/svg">
<path d="M41.1262 23.2601C41.1262 23.4639 41.0567 23.6362 40.9174 23.777C40.7782 23.9181 40.6078 23.9886 40.4067 23.9886C39.695 23.9733 39.0994 23.8323 38.62 23.5655C38.1402 23.2992 37.7495 22.9703 37.4479 22.5784C37.1464 22.1872 36.9295 21.7718 36.7981 21.3328C36.6666 20.8946 36.6009 20.5026 36.6009 20.1579V9.51177C36.6009 9.30841 36.6703 9.13563 36.8096 8.99456C36.9489 8.85349 37.119 8.7832 37.3203 8.7832C37.5212 8.7832 37.6916 8.85349 37.8309 8.99456C37.9701 9.13563 38.0396 9.30841 38.0396 9.51177V20.1579C38.0396 20.2834 38.0666 20.4714 38.1208 20.7219C38.1748 20.9729 38.2869 21.2313 38.4574 21.4976C38.6275 21.7641 38.867 21.9992 39.1766 22.2025C39.4859 22.4061 39.8961 22.5161 40.4065 22.5315C40.6077 22.5315 40.7781 22.602 40.9172 22.7431C41.0565 22.8842 41.1262 23.0567 41.1262 23.2601Z" fill="black"/>
<path d="M44.3285 19.0065C44.4057 19.5081 44.5683 19.974 44.8158 20.4047C45.0631 20.8356 45.3688 21.2076 45.7326 21.5209C46.0959 21.8343 46.5101 22.081 46.9741 22.2613C47.4383 22.4414 47.9257 22.5314 48.4361 22.5314C49.0084 22.5314 49.5422 22.4256 50.0374 22.2142C50.5322 22.0029 50.9731 21.709 51.3601 21.3327C51.4991 21.1918 51.6692 21.1214 51.8705 21.1214C52.0715 21.1214 52.2419 21.1918 52.381 21.3327C52.5203 21.4739 52.5901 21.6466 52.5901 21.8499C52.5901 22.0537 52.5203 22.226 52.381 22.3669C51.8705 22.9468 51.294 23.3581 50.6522 23.6009C50.0102 23.844 49.2716 23.965 48.4361 23.965C47.6623 23.965 46.9393 23.824 46.2662 23.5421C45.5932 23.26 45.0015 22.8685 44.4911 22.3669C43.9803 21.8658 43.5779 21.2704 43.2843 20.5808C42.9903 19.8916 42.8434 19.1395 42.8434 18.3247C42.8434 17.5416 42.9862 16.8088 43.2727 16.1274C43.5587 15.4458 43.9533 14.8504 44.4562 14.3412C44.9587 13.8323 45.5546 13.4245 46.2429 13.1191C46.9312 12.8136 47.6779 12.6454 48.4825 12.6138C49.225 12.6138 49.9248 12.7628 50.5827 13.0603C51.2401 13.3581 51.8241 13.7574 52.3346 14.2589C52.8454 14.7605 53.2514 15.348 53.5531 16.0217C53.8546 16.6953 54.0209 17.4162 54.0519 18.1836C54.0829 18.4502 54.0173 18.6535 53.8546 18.7946C53.6922 18.9357 53.5183 19.0063 53.3326 19.0063H44.3285V19.0065ZM48.4362 14.0945C47.9257 14.0945 47.4421 14.1849 46.9859 14.3647C46.5293 14.5448 46.1192 14.7879 45.7558 15.0932C45.3924 15.3987 45.0905 15.763 44.8508 16.1861C44.6108 16.6092 44.4448 17.0638 44.3519 17.5491H52.5437C52.4509 17.0638 52.2803 16.6092 52.033 16.1861C51.7855 15.763 51.4798 15.3987 51.1165 15.0932C50.7527 14.7879 50.3427 14.5448 49.8865 14.3647C49.43 14.1849 48.9465 14.0945 48.4362 14.0945Z" fill="black"/>
<path d="M57.672 19.0065C57.7492 19.5081 57.9118 19.974 58.1593 20.4047C58.4066 20.8356 58.7123 21.2076 59.0761 21.5209C59.4393 21.8343 59.8536 22.081 60.3176 22.2613C60.7818 22.4414 61.2692 22.5314 61.7796 22.5314C62.3518 22.5314 62.8856 22.4256 63.3809 22.2142C63.8757 22.0029 64.3166 21.709 64.7036 21.3327C64.8426 21.1918 65.0127 21.1214 65.214 21.1214C65.4148 21.1214 65.5854 21.1918 65.7245 21.3327C65.8638 21.4739 65.9334 21.6466 65.9334 21.8499C65.9334 22.0537 65.8638 22.226 65.7245 22.3669C65.214 22.9468 64.6375 23.3581 63.9957 23.6009C63.3537 23.844 62.615 23.965 61.7796 23.965C61.0058 23.965 60.2828 23.824 59.6097 23.5421C58.9367 23.26 58.345 22.8685 57.8345 22.3669C57.3238 21.8658 56.9214 21.2704 56.6277 20.5808C56.3338 19.8916 56.1869 19.1395 56.1869 18.3247C56.1869 17.5416 56.3297 16.8088 56.6161 16.1274C56.9021 15.4458 57.2967 14.8504 57.7998 14.3412C58.3022 13.8323 58.898 13.4245 59.5864 13.1191C60.2747 12.8136 61.0213 12.6454 61.8259 12.6138C62.5685 12.6138 63.2683 12.7628 63.9262 13.0603C64.5836 13.3581 65.1676 13.7574 65.678 14.2589C66.1887 14.7605 66.5949 15.348 66.8964 16.0217C67.1981 16.6953 67.3644 17.4162 67.3954 18.1836C67.4264 18.4502 67.3608 18.6535 67.1981 18.7946C67.0357 18.9357 66.8617 19.0063 66.6761 19.0063H57.672V19.0065ZM61.7796 14.0945C61.2691 14.0945 60.7854 14.1849 60.3292 14.3647C59.8727 14.5448 59.4626 14.7879 59.099 15.0932C58.7355 15.3987 58.4337 15.763 58.1941 16.1861C57.954 16.6092 57.788 17.0638 57.6951 17.5491H65.887C65.7941 17.0638 65.6235 16.6092 65.3763 16.1861C65.1286 15.763 64.823 15.3987 64.4597 15.0932C64.096 14.7879 63.6858 14.5448 63.2297 14.3647C62.7734 14.1849 62.2899 14.0945 61.7796 14.0945Z" fill="black"/>
<path d="M75.3317 23.9885C74.4652 23.9573 73.6761 23.734 72.9647 23.3188C72.2529 22.9038 71.642 22.4139 71.1314 21.8499V27.5138C71.1314 27.7173 71.0618 27.8898 70.9227 28.0307C70.7834 28.1719 70.6129 28.2422 70.412 28.2422C70.2106 28.2422 70.0408 28.1719 69.9015 28.0307C69.7623 27.8898 69.6925 27.7173 69.6925 27.5138V18.2777C69.6925 17.4634 69.8394 16.711 70.1334 16.0218C70.4272 15.3323 70.8298 14.7371 71.3402 14.2355C71.8507 13.7341 72.4424 13.3426 73.1154 13.0604C73.7885 12.7783 74.5115 12.6372 75.2852 12.6372C76.0741 12.6372 76.8088 12.7863 77.4899 13.0838C78.1705 13.3818 78.7623 13.7889 79.265 14.3058C79.7678 14.8228 80.1662 15.422 80.4602 16.1036C80.754 16.7853 80.9012 17.5102 80.9012 18.2776C80.9012 19.0612 80.7503 19.7975 80.4486 20.4865C80.1469 21.1763 79.7408 21.7791 79.2302 22.2963C78.7195 22.8134 78.1279 23.2245 77.4551 23.5303C76.7822 23.836 76.0742 23.9885 75.3317 23.9885ZM71.1314 18.2777C71.1467 18.8887 71.2707 19.4528 71.5027 19.9698C71.7348 20.4868 72.0365 20.9335 72.4079 21.3094C72.7791 21.6854 73.212 21.9791 73.7073 22.1908C74.2024 22.4022 74.7284 22.5081 75.2853 22.5081C75.8576 22.5081 76.3993 22.3986 76.9098 22.1789C77.4205 21.9596 77.865 21.6583 78.2443 21.274C78.6231 20.8905 78.9207 20.4397 79.1377 19.9228C79.3542 19.4058 79.4625 18.8575 79.4625 18.2777C79.4625 17.6981 79.3542 17.1537 79.1377 16.6443C78.9207 16.1354 78.6231 15.6889 78.2443 15.3048C77.865 14.9212 77.4203 14.6195 76.9098 14.4001C76.3993 14.1809 75.8576 14.0709 75.2853 14.0709C74.7128 14.0709 74.1752 14.1809 73.6727 14.4001C73.1697 14.6195 72.7289 14.9212 72.35 15.3048C71.9706 15.6889 71.673 16.1354 71.4564 16.6443C71.2395 17.1537 71.1314 17.6982 71.1314 18.2777Z" fill="black"/>
<path d="M31.5978 23.2543C31.5978 28.0843 27.7314 32 22.9619 32H8.6359C3.86653 32 0 28.0844 0 23.2543V8.74592C0 3.91573 3.86641 0 8.6359 0H22.962C27.7314 0 31.5979 3.91561 31.5979 8.74592L31.5978 23.2543Z" fill="black"/>
<path d="M14.6326 9.6001C14.3136 9.6001 14.0365 9.71894 13.809 9.95334C13.5816 10.1877 13.4661 10.4735 13.4661 10.8024V17.9568C11.0405 15.3506 8.67801 12.6413 6.20313 10.0943C5.97583 9.85986 5.6986 9.74089 5.37951 9.74089C5.06041 9.74089 4.7833 9.85973 4.55588 10.0943C4.32847 10.3285 4.21304 10.6143 4.21304 10.9432V21.1977C4.21304 21.5266 4.32835 21.8122 4.55588 22.0466C4.78318 22.2811 5.06041 22.4001 5.37951 22.4001C5.6986 22.4001 5.97571 22.2813 6.20313 22.0466C6.43054 21.8123 6.54596 21.5267 6.54596 21.1977V14.2421C8.96314 16.8424 11.3752 19.5709 13.6134 22.0465C13.7545 22.2025 14.0874 22.4005 14.6325 22.4C14.9517 22.4 15.2288 22.2811 15.4561 22.0465C15.6835 21.8122 15.7989 21.5266 15.7989 21.1976V10.8021C15.7989 10.4731 15.6836 10.1875 15.4561 9.95309C15.2288 9.71894 14.9517 9.6001 14.6326 9.6001Z" fill="url(#paint0_linear_2522_832)"/>
<path d="M27.0322 9.95334C26.7981 9.71906 26.5125 9.6001 26.184 9.6001C25.8555 9.6001 25.5701 9.71894 25.3359 9.95334C25.1016 10.1877 24.9829 10.5184 24.9829 10.9358V17.4212C24.9829 17.4802 24.9858 17.5396 24.9916 17.5983C24.9529 18.2368 24.7072 18.7713 24.24 19.2331C23.7275 19.746 23.1259 19.9955 22.4012 19.9955H22.3631C21.6383 19.9955 21.0369 19.746 20.523 19.2319C20.0569 18.7714 19.8114 18.2367 19.7725 17.5981C19.7784 17.5386 19.7814 17.4793 19.7814 17.4212V10.9358C19.7814 10.5183 19.6626 10.1877 19.4283 9.95334C19.1942 9.71906 18.9087 9.6001 18.5801 9.6001C18.2515 9.6001 17.9663 9.71894 17.732 9.95334C17.4977 10.1877 17.3788 10.5247 17.3788 10.9548V17.4425C17.3921 18.7955 17.8827 19.9661 18.8371 20.9214C19.7379 21.8229 20.9005 22.3204 22.2925 22.3997L22.4645 22.4001L22.471 22.3997C23.863 22.3204 25.0256 21.8232 25.9264 20.9214C26.8807 19.9663 27.3713 18.7955 27.3848 17.4401V10.9548C27.3852 10.5247 27.2664 10.1877 27.0322 9.95334Z" fill="url(#paint1_linear_2522_832)"/>
<defs>
<linearGradient id="paint0_linear_2522_832" x1="4.3447" y1="16.6001" x2="27.0557" y2="16.6001" gradientUnits="userSpaceOnUse">
<stop stop-color="#10E9D4"/>
<stop offset="1" stop-color="#FC52FF"/>
</linearGradient>
<linearGradient id="paint1_linear_2522_832" x1="27.2532" y1="15.4001" x2="4.14721" y2="15.4001" gradientUnits="userSpaceOnUse">
<stop stop-color="#FC52FF"/>
<stop offset="1" stop-color="#10E9D4"/>
</linearGradient>
</defs>
</svg>
