<svg width="45" height="21" viewBox="0 0 45 21" fill="none" xmlns="http://www.w3.org/2000/svg">
<path d="M5.12613 15.2601C5.12613 15.4639 5.0566 15.6362 4.91731 15.777C4.77813 15.9181 4.60777 15.9886 4.40659 15.9886C3.69495 15.9733 3.09929 15.8323 2.61989 15.5655C2.14012 15.2992 1.74947 14.9703 1.44783 14.5784C1.1463 14.1872 0.929469 13.7718 0.798062 13.3328C0.666531 12.8946 0.60083 12.5026 0.60083 12.1579V1.51177C0.60083 1.30841 0.670231 1.13563 0.809528 0.994557C0.948825 0.853487 1.11894 0.783203 1.32024 0.783203C1.52118 0.783203 1.69153 0.853487 1.83083 0.994557C1.97 1.13563 2.03953 1.30841 2.03953 1.51177V12.1579C2.03953 12.2834 2.06652 12.4714 2.12076 12.7219C2.17476 12.9729 2.28682 13.2313 2.4573 13.4976C2.62741 13.7641 2.86693 13.9992 3.17658 14.2025C3.48587 14.4061 3.896 14.5161 4.40647 14.5315C4.60765 14.5315 4.77801 14.602 4.91718 14.7431C5.05648 14.8842 5.12613 15.0567 5.12613 15.2601Z" fill="black"/>
<path d="M8.32844 11.0065C8.40561 11.5081 8.5682 11.974 8.81573 12.4047C9.06302 12.8356 9.36873 13.2076 9.73251 13.5209C10.0958 13.8343 10.51 14.081 10.974 14.2613C11.4382 14.4414 11.9256 14.5314 12.436 14.5314C13.0083 14.5314 13.5421 14.4256 14.0373 14.2142C14.5321 14.0029 14.973 13.709 15.36 13.3327C15.499 13.1918 15.6691 13.1214 15.8704 13.1214C16.0714 13.1214 16.2419 13.1918 16.3809 13.3327C16.5202 13.4739 16.59 13.6466 16.59 13.8499C16.59 14.0537 16.5202 14.226 16.3809 14.3669C15.8704 14.9468 15.2939 15.3581 14.6521 15.6009C14.0101 15.844 13.2715 15.965 12.436 15.965C11.6622 15.965 10.9392 15.824 10.2661 15.5421C9.59308 15.26 9.00138 14.8685 8.49103 14.3669C7.9802 13.8658 7.57784 13.2704 7.28421 12.5808C6.9902 11.8916 6.84326 11.1395 6.84326 10.3247C6.84326 9.54158 6.98614 8.80877 7.27262 8.1274C7.55861 7.44577 7.9532 6.8504 8.45615 6.34118C8.95861 5.83233 9.5545 5.42448 10.2429 5.11912C10.9311 4.81364 11.6779 4.64535 12.4824 4.61377C13.2249 4.61377 13.9247 4.76283 14.5826 5.06033C15.24 5.35807 15.824 5.75743 16.3346 6.25891C16.8453 6.76052 17.2513 7.34801 17.553 8.02165C17.8545 8.69529 18.0208 9.41625 18.0519 10.1836C18.0828 10.4502 18.0172 10.6535 17.8545 10.7946C17.6921 10.9357 17.5182 11.0063 17.3326 11.0063H8.32844V11.0065ZM12.4361 6.0945C11.9256 6.0945 11.442 6.18489 10.9858 6.36466C10.5292 6.5448 10.1191 6.78786 9.75568 7.09322C9.39227 7.39871 9.09037 7.76298 8.85073 8.18607C8.61073 8.60915 8.44468 9.06382 8.35186 9.54908H16.5436C16.4508 9.06382 16.2802 8.60915 16.0329 8.18607C15.7854 7.76298 15.4797 7.39871 15.1164 7.09322C14.7526 6.78786 14.3426 6.5448 13.8864 6.36466C13.4299 6.18489 12.9464 6.0945 12.4361 6.0945Z" fill="black"/>
<path d="M21.6719 11.0065C21.7491 11.5081 21.9117 11.974 22.1592 12.4047C22.4065 12.8356 22.7122 13.2076 23.076 13.5209C23.4392 13.8343 23.8535 14.081 24.3175 14.2613C24.7817 14.4414 25.2691 14.5314 25.7795 14.5314C26.3517 14.5314 26.8855 14.4256 27.3808 14.2142C27.8756 14.0029 28.3165 13.709 28.7035 13.3327C28.8425 13.1918 29.0126 13.1214 29.2139 13.1214C29.4147 13.1214 29.5853 13.1918 29.7244 13.3327C29.8637 13.4739 29.9333 13.6466 29.9333 13.8499C29.9333 14.0537 29.8637 14.226 29.7244 14.3669C29.2139 14.9468 28.6374 15.3581 27.9956 15.6009C27.3536 15.844 26.6149 15.965 25.7795 15.965C25.0057 15.965 24.2827 15.824 23.6096 15.5421C22.9366 15.26 22.3449 14.8685 21.8344 14.3669C21.3237 13.8658 20.9213 13.2704 20.6276 12.5808C20.3337 11.8916 20.1868 11.1395 20.1868 10.3247C20.1868 9.54158 20.3296 8.80877 20.616 8.1274C20.902 7.44577 21.2966 6.8504 21.7996 6.34118C22.3021 5.83233 22.8979 5.42448 23.5863 5.11912C24.2746 4.81364 25.0212 4.64535 25.8258 4.61377C26.5684 4.61377 27.2682 4.76283 27.9261 5.06033C28.5835 5.35807 29.1674 5.75743 29.6779 6.25891C30.1886 6.76052 30.5948 7.34801 30.8963 8.02165C31.198 8.69529 31.3643 9.41625 31.3953 10.1836C31.4263 10.4502 31.3607 10.6535 31.198 10.7946C31.0356 10.9357 30.8616 11.0063 30.676 11.0063H21.6719V11.0065ZM25.7795 6.0945C25.269 6.0945 24.7853 6.18489 24.3291 6.36466C23.8726 6.5448 23.4625 6.78786 23.0989 7.09322C22.7354 7.39871 22.4336 7.76298 22.194 8.18607C21.9539 8.60915 21.7879 9.06382 21.695 9.54908H29.8869C29.794 9.06382 29.6234 8.60915 29.3761 8.18607C29.1285 7.76298 28.8229 7.39871 28.4596 7.09322C28.0958 6.78786 27.6857 6.5448 27.2296 6.36466C26.7733 6.18489 26.2898 6.0945 25.7795 6.0945Z" fill="black"/>
<path d="M39.3316 15.9885C38.4651 15.9573 37.676 15.734 36.9646 15.3188C36.2529 14.9038 35.6419 14.4139 35.1313 13.8499V19.5138C35.1313 19.7173 35.0617 19.8898 34.9226 20.0307C34.7833 20.1719 34.6129 20.2422 34.4119 20.2422C34.2105 20.2422 34.0408 20.1719 33.9015 20.0307C33.7622 19.8898 33.6924 19.7173 33.6924 19.5138V10.2777C33.6924 9.4634 33.8393 8.71099 34.1333 8.02175C34.4271 7.33226 34.8297 6.73715 35.3402 6.23554C35.8506 5.73406 36.4423 5.34256 37.1153 5.06042C37.7885 4.77828 38.5114 4.63721 39.2851 4.63721C40.074 4.63721 40.8087 4.78627 41.4898 5.08376C42.1704 5.38176 42.7622 5.78886 43.2649 6.30582C43.7677 6.82279 44.1661 7.42202 44.4601 8.10365C44.7539 8.78527 44.9011 9.51022 44.9011 10.2776C44.9011 11.0612 44.7502 11.7975 44.4485 12.4865C44.1468 13.1763 43.7407 13.7791 43.2301 14.2963C42.7194 14.8134 42.1278 15.2245 41.455 15.5303C40.7821 15.836 40.0741 15.9885 39.3316 15.9885ZM35.1313 10.2777C35.1466 10.8887 35.2706 11.4528 35.5026 11.9698C35.7347 12.4868 36.0364 12.9335 36.4078 13.3094C36.779 13.6854 37.2119 13.9791 37.7072 14.1908C38.2023 14.4022 38.7283 14.5081 39.2852 14.5081C39.8575 14.5081 40.3992 14.3986 40.9097 14.1789C41.4204 13.9596 41.8649 13.6583 42.2442 13.274C42.623 12.8905 42.9206 12.4397 43.1376 11.9228C43.3541 11.4058 43.4624 10.8575 43.4624 10.2777C43.4624 9.6981 43.3541 9.15368 43.1376 8.64433C42.9206 8.13535 42.623 7.68893 42.2442 7.3048C41.8649 6.92116 41.4203 6.61955 40.9097 6.40008C40.3992 6.18086 39.8575 6.07087 39.2852 6.07087C38.7127 6.07087 38.1752 6.18086 37.6726 6.40008C37.1696 6.61955 36.7288 6.92116 36.3499 7.3048C35.9706 7.68893 35.6729 8.13535 35.4563 8.64433C35.2394 9.15368 35.1313 9.69823 35.1313 10.2777Z" fill="black"/>
</svg>
