<svg width="32" height="32" viewBox="0 0 32 32" fill="none" xmlns="http://www.w3.org/2000/svg">
<path d="M31.5978 23.2543C31.5978 28.0843 27.7314 32 22.9619 32H8.6359C3.86653 32 0 28.0844 0 23.2543V8.74592C0 3.91573 3.86641 0 8.6359 0H22.962C27.7314 0 31.5979 3.91561 31.5979 8.74592L31.5978 23.2543Z" fill="black"/>
<path d="M14.6327 9.6001C14.3137 9.6001 14.0366 9.71894 13.8091 9.95334C13.5816 10.1877 13.4662 10.4735 13.4662 10.8024V17.9568C11.0406 15.3506 8.6781 12.6413 6.20322 10.0943C5.97592 9.85986 5.69869 9.74089 5.3796 9.74089C5.0605 9.74089 4.78339 9.85973 4.55598 10.0943C4.32856 10.3285 4.21313 10.6143 4.21313 10.9432V21.1977C4.21313 21.5266 4.32844 21.8122 4.55598 22.0466C4.78327 22.2811 5.0605 22.4001 5.3796 22.4001C5.69869 22.4001 5.9758 22.2813 6.20322 22.0466C6.43063 21.8123 6.54605 21.5267 6.54605 21.1977V14.2421C8.96323 16.8424 11.3753 19.5709 13.6135 22.0465C13.7546 22.2025 14.0875 22.4005 14.6326 22.4C14.9518 22.4 15.2289 22.2811 15.4562 22.0465C15.6836 21.8122 15.799 21.5266 15.799 21.1976V10.8021C15.799 10.4731 15.6837 10.1875 15.4562 9.95309C15.2289 9.71894 14.9518 9.6001 14.6327 9.6001Z" fill="url(#paint0_linear_2407_958)"/>
<path d="M27.0322 9.95334C26.7982 9.71906 26.5126 9.6001 26.1841 9.6001C25.8555 9.6001 25.5702 9.71894 25.336 9.95334C25.1017 10.1877 24.9829 10.5184 24.9829 10.9358V17.4212C24.9829 17.4802 24.9858 17.5396 24.9916 17.5983C24.9529 18.2368 24.7073 18.7713 24.2401 19.2331C23.7276 19.746 23.126 19.9955 22.4013 19.9955H22.3632C21.6383 19.9955 21.037 19.746 20.5231 19.2319C20.057 18.7714 19.8115 18.2367 19.7725 17.5981C19.7785 17.5386 19.7815 17.4793 19.7815 17.4212V10.9358C19.7815 10.5183 19.6626 10.1877 19.4283 9.95334C19.1943 9.71906 18.9088 9.6001 18.5802 9.6001C18.2516 9.6001 17.9664 9.71894 17.7321 9.95334C17.4978 10.1877 17.3789 10.5247 17.3789 10.9548V17.4425C17.3921 18.7955 17.8828 19.9661 18.8372 20.9214C19.738 21.8229 20.9006 22.3204 22.2926 22.3997L22.4645 22.4001L22.4711 22.3997C23.8631 22.3204 25.0257 21.8232 25.9265 20.9214C26.8807 19.9663 27.3714 18.7955 27.3849 17.4401V10.9548C27.3853 10.5247 27.2664 10.1877 27.0322 9.95334Z" fill="url(#paint1_linear_2407_958)"/>
<defs>
<linearGradient id="paint0_linear_2407_958" x1="4.34479" y1="16.6001" x2="27.0558" y2="16.6001" gradientUnits="userSpaceOnUse">
<stop stop-color="#10E9D4"/>
<stop offset="1" stop-color="#FC52FF"/>
</linearGradient>
<linearGradient id="paint1_linear_2407_958" x1="27.2532" y1="15.4001" x2="4.14729" y2="15.4001" gradientUnits="userSpaceOnUse">
<stop stop-color="#FC52FF"/>
<stop offset="1" stop-color="#10E9D4"/>
</linearGradient>
</defs>
</svg>
