<svg width="81" height="32" viewBox="0 0 81 32" fill="none" xmlns="http://www.w3.org/2000/svg">
<path d="M41.1261 23.2601C41.1261 23.4639 41.0566 23.6362 40.9173 23.777C40.7781 23.9181 40.6078 23.9886 40.4066 23.9886C39.6949 23.9733 39.0993 23.8323 38.6199 23.5655C38.1401 23.2992 37.7495 22.9703 37.4478 22.5784C37.1463 22.1872 36.9295 21.7718 36.7981 21.3328C36.6665 20.8946 36.6008 20.5026 36.6008 20.1579V9.51177C36.6008 9.30841 36.6702 9.13563 36.8095 8.99456C36.9488 8.85349 37.1189 8.7832 37.3202 8.7832C37.5212 8.7832 37.6915 8.85349 37.8308 8.99456C37.97 9.13563 38.0395 9.30841 38.0395 9.51177V20.1579C38.0395 20.2834 38.0665 20.4714 38.1208 20.7219C38.1748 20.9729 38.2868 21.2313 38.4573 21.4976C38.6274 21.7641 38.8669 21.9992 39.1766 22.2025C39.4859 22.4061 39.896 22.5161 40.4065 22.5315C40.6077 22.5315 40.778 22.602 40.9172 22.7431C41.0565 22.8842 41.1261 23.0567 41.1261 23.2601Z" fill="black"/>
<path d="M44.3284 19.0065C44.4056 19.5081 44.5682 19.974 44.8157 20.4047C45.063 20.8356 45.3687 21.2076 45.7325 21.5209C46.0958 21.8343 46.51 22.081 46.974 22.2613C47.4382 22.4414 47.9256 22.5314 48.436 22.5314C49.0083 22.5314 49.5421 22.4256 50.0373 22.2142C50.5321 22.0029 50.973 21.709 51.36 21.3327C51.499 21.1918 51.6691 21.1214 51.8704 21.1214C52.0714 21.1214 52.2419 21.1918 52.3809 21.3327C52.5202 21.4739 52.59 21.6466 52.59 21.8499C52.59 22.0537 52.5202 22.226 52.3809 22.3669C51.8704 22.9468 51.2939 23.3581 50.6521 23.6009C50.0101 23.844 49.2715 23.965 48.436 23.965C47.6622 23.965 46.9392 23.824 46.2661 23.5421C45.5931 23.26 45.0014 22.8685 44.491 22.3669C43.9802 21.8658 43.5778 21.2704 43.2842 20.5808C42.9902 19.8916 42.8433 19.1395 42.8433 18.3247C42.8433 17.5416 42.9861 16.8088 43.2726 16.1274C43.5586 15.4458 43.9532 14.8504 44.4562 14.3412C44.9586 13.8323 45.5545 13.4245 46.2429 13.1191C46.9311 12.8136 47.6779 12.6454 48.4824 12.6138C49.2249 12.6138 49.9247 12.7628 50.5826 13.0603C51.24 13.3581 51.824 13.7574 52.3346 14.2589C52.8453 14.7605 53.2513 15.348 53.553 16.0217C53.8545 16.6953 54.0208 17.4162 54.0519 18.1836C54.0828 18.4502 54.0172 18.6535 53.8545 18.7946C53.6921 18.9357 53.5182 19.0063 53.3326 19.0063H44.3284V19.0065ZM48.4361 14.0945C47.9256 14.0945 47.442 14.1849 46.9858 14.3647C46.5292 14.5448 46.1191 14.7879 45.7557 15.0932C45.3923 15.3987 45.0904 15.763 44.8507 16.1861C44.6107 16.6092 44.4447 17.0638 44.3519 17.5491H52.5436C52.4508 17.0638 52.2802 16.6092 52.0329 16.1861C51.7854 15.763 51.4797 15.3987 51.1164 15.0932C50.7526 14.7879 50.3426 14.5448 49.8864 14.3647C49.4299 14.1849 48.9464 14.0945 48.4361 14.0945Z" fill="black"/>
<path d="M57.6719 19.0065C57.7491 19.5081 57.9117 19.974 58.1592 20.4047C58.4065 20.8356 58.7122 21.2076 59.076 21.5209C59.4392 21.8343 59.8535 22.081 60.3175 22.2613C60.7817 22.4414 61.2691 22.5314 61.7795 22.5314C62.3517 22.5314 62.8855 22.4256 63.3808 22.2142C63.8756 22.0029 64.3165 21.709 64.7035 21.3327C64.8425 21.1918 65.0126 21.1214 65.2139 21.1214C65.4147 21.1214 65.5853 21.1918 65.7244 21.3327C65.8637 21.4739 65.9333 21.6466 65.9333 21.8499C65.9333 22.0537 65.8637 22.226 65.7244 22.3669C65.2139 22.9468 64.6374 23.3581 63.9956 23.6009C63.3536 23.844 62.6149 23.965 61.7795 23.965C61.0057 23.965 60.2827 23.824 59.6096 23.5421C58.9366 23.26 58.3449 22.8685 57.8344 22.3669C57.3237 21.8658 56.9213 21.2704 56.6276 20.5808C56.3337 19.8916 56.1868 19.1395 56.1868 18.3247C56.1868 17.5416 56.3296 16.8088 56.616 16.1274C56.902 15.4458 57.2966 14.8504 57.7996 14.3412C58.3021 13.8323 58.8979 13.4245 59.5863 13.1191C60.2746 12.8136 61.0212 12.6454 61.8258 12.6138C62.5684 12.6138 63.2682 12.7628 63.9261 13.0603C64.5835 13.3581 65.1674 13.7574 65.6779 14.2589C66.1886 14.7605 66.5948 15.348 66.8963 16.0217C67.198 16.6953 67.3643 17.4162 67.3953 18.1836C67.4263 18.4502 67.3607 18.6535 67.198 18.7946C67.0356 18.9357 66.8616 19.0063 66.676 19.0063H57.6719V19.0065ZM61.7795 14.0945C61.269 14.0945 60.7853 14.1849 60.3291 14.3647C59.8726 14.5448 59.4625 14.7879 59.0989 15.0932C58.7354 15.3987 58.4336 15.763 58.194 16.1861C57.9539 16.6092 57.7879 17.0638 57.695 17.5491H65.8869C65.794 17.0638 65.6234 16.6092 65.3761 16.1861C65.1285 15.763 64.8229 15.3987 64.4596 15.0932C64.0958 14.7879 63.6857 14.5448 63.2296 14.3647C62.7733 14.1849 62.2898 14.0945 61.7795 14.0945Z" fill="black"/>
<path d="M75.3316 23.9885C74.4651 23.9573 73.676 23.734 72.9646 23.3188C72.2529 22.9038 71.6419 22.4139 71.1313 21.8499V27.5138C71.1313 27.7173 71.0617 27.8898 70.9226 28.0307C70.7833 28.1719 70.6129 28.2422 70.4119 28.2422C70.2105 28.2422 70.0408 28.1719 69.9015 28.0307C69.7622 27.8898 69.6924 27.7173 69.6924 27.5138V18.2777C69.6924 17.4634 69.8393 16.711 70.1333 16.0218C70.4271 15.3323 70.8297 14.7371 71.3402 14.2355C71.8506 13.7341 72.4423 13.3426 73.1153 13.0604C73.7885 12.7783 74.5114 12.6372 75.2851 12.6372C76.074 12.6372 76.8087 12.7863 77.4898 13.0838C78.1704 13.3818 78.7622 13.7889 79.2649 14.3058C79.7677 14.8228 80.1661 15.422 80.4601 16.1036C80.7539 16.7853 80.9011 17.5102 80.9011 18.2776C80.9011 19.0612 80.7502 19.7975 80.4485 20.4865C80.1468 21.1763 79.7407 21.7791 79.2301 22.2963C78.7194 22.8134 78.1278 23.2245 77.455 23.5303C76.7821 23.836 76.0741 23.9885 75.3316 23.9885ZM71.1313 18.2777C71.1466 18.8887 71.2706 19.4528 71.5026 19.9698C71.7347 20.4868 72.0364 20.9335 72.4078 21.3094C72.779 21.6854 73.2119 21.9791 73.7072 22.1908C74.2023 22.4022 74.7283 22.5081 75.2852 22.5081C75.8575 22.5081 76.3992 22.3986 76.9097 22.1789C77.4204 21.9596 77.8649 21.6583 78.2442 21.274C78.623 20.8905 78.9206 20.4397 79.1376 19.9228C79.3541 19.4058 79.4624 18.8575 79.4624 18.2777C79.4624 17.6981 79.3541 17.1537 79.1376 16.6443C78.9206 16.1354 78.623 15.6889 78.2442 15.3048C77.8649 14.9212 77.4203 14.6195 76.9097 14.4001C76.3992 14.1809 75.8575 14.0709 75.2852 14.0709C74.7127 14.0709 74.1752 14.1809 73.6726 14.4001C73.1696 14.6195 72.7288 14.9212 72.3499 15.3048C71.9706 15.6889 71.6729 16.1354 71.4563 16.6443C71.2394 17.1537 71.1313 17.6982 71.1313 18.2777Z" fill="black"/>
<path d="M31.5978 23.2543C31.5978 28.0843 27.7314 32 22.9619 32H8.6359C3.86653 32 0 28.0844 0 23.2543V8.74592C0 3.91573 3.86641 0 8.6359 0H22.962C27.7314 0 31.5979 3.91561 31.5979 8.74592L31.5978 23.2543Z" fill="black"/>
<path d="M14.6327 9.6001C14.3137 9.6001 14.0366 9.71894 13.8091 9.95334C13.5816 10.1877 13.4662 10.4735 13.4662 10.8024V17.9568C11.0406 15.3506 8.6781 12.6413 6.20322 10.0943C5.97592 9.85986 5.69869 9.74089 5.3796 9.74089C5.0605 9.74089 4.78339 9.85973 4.55598 10.0943C4.32856 10.3285 4.21313 10.6143 4.21313 10.9432V21.1977C4.21313 21.5266 4.32844 21.8122 4.55598 22.0466C4.78327 22.2811 5.0605 22.4001 5.3796 22.4001C5.69869 22.4001 5.9758 22.2813 6.20322 22.0466C6.43063 21.8123 6.54605 21.5267 6.54605 21.1977V14.2421C8.96323 16.8424 11.3753 19.5709 13.6135 22.0465C13.7546 22.2025 14.0875 22.4005 14.6326 22.4C14.9518 22.4 15.2289 22.2811 15.4562 22.0465C15.6836 21.8122 15.799 21.5266 15.799 21.1976V10.8021C15.799 10.4731 15.6837 10.1875 15.4562 9.95309C15.2289 9.71894 14.9518 9.6001 14.6327 9.6001Z" fill="url(#paint0_linear_2432_623)"/>
<path d="M27.0322 9.95334C26.7982 9.71906 26.5126 9.6001 26.1841 9.6001C25.8555 9.6001 25.5702 9.71894 25.336 9.95334C25.1017 10.1877 24.9829 10.5184 24.9829 10.9358V17.4212C24.9829 17.4802 24.9858 17.5396 24.9916 17.5983C24.9529 18.2368 24.7073 18.7713 24.2401 19.2331C23.7276 19.746 23.126 19.9955 22.4013 19.9955H22.3632C21.6383 19.9955 21.037 19.746 20.5231 19.2319C20.057 18.7714 19.8115 18.2367 19.7725 17.5981C19.7785 17.5386 19.7815 17.4793 19.7815 17.4212V10.9358C19.7815 10.5183 19.6626 10.1877 19.4283 9.95334C19.1943 9.71906 18.9088 9.6001 18.5802 9.6001C18.2516 9.6001 17.9664 9.71894 17.7321 9.95334C17.4978 10.1877 17.3789 10.5247 17.3789 10.9548V17.4425C17.3921 18.7955 17.8828 19.9661 18.8372 20.9214C19.738 21.8229 20.9006 22.3204 22.2926 22.3997L22.4645 22.4001L22.4711 22.3997C23.8631 22.3204 25.0257 21.8232 25.9265 20.9214C26.8807 19.9663 27.3714 18.7955 27.3849 17.4401V10.9548C27.3853 10.5247 27.2664 10.1877 27.0322 9.95334Z" fill="url(#paint1_linear_2432_623)"/>
<defs>
<linearGradient id="paint0_linear_2432_623" x1="4.34479" y1="16.6001" x2="27.0558" y2="16.6001" gradientUnits="userSpaceOnUse">
<stop stop-color="#10E9D4"/>
<stop offset="1" stop-color="#FC52FF"/>
</linearGradient>
<linearGradient id="paint1_linear_2432_623" x1="27.2532" y1="15.4001" x2="4.14729" y2="15.4001" gradientUnits="userSpaceOnUse">
<stop stop-color="#FC52FF"/>
<stop offset="1" stop-color="#10E9D4"/>
</linearGradient>
</defs>
</svg>
