<svg width="20" height="20" viewBox="0 0 20 20" fill="none" xmlns="http://www.w3.org/2000/svg">
<path fill-rule="evenodd" clip-rule="evenodd" d="M11.7871 1.80515C11.3322 -0.0683518 8.66776 -0.0683527 8.21293 1.80515C7.91912 3.01542 6.53253 3.58976 5.46899 2.94173C3.82261 1.93857 1.93854 3.82264 2.9417 5.46902C3.58973 6.53256 3.01539 7.91915 1.80512 8.21296C-0.0683832 8.66779 -0.0683823 11.3323 1.80512 11.7871C3.01539 12.0809 3.58973 13.4675 2.9417 14.531C1.93854 16.1774 3.82261 18.0615 5.46899 17.0583C6.53253 16.4103 7.91912 16.9846 8.21293 18.1949C8.66776 20.0684 11.3322 20.0684 11.7871 18.1949C12.0809 16.9846 13.4675 16.4103 14.531 17.0583C16.1774 18.0615 18.0614 16.1774 17.0583 14.531C16.4103 13.4675 16.9846 12.0809 18.1949 11.7871C20.0684 11.3323 20.0684 8.66779 18.1949 8.21296C16.9846 7.91915 16.4103 6.53256 17.0583 5.46902C18.0614 3.82264 16.1774 1.93857 14.531 2.94173C13.4675 3.58976 12.0809 3.01542 11.7871 1.80515ZM9.99999 13.6C11.9882 13.6 13.6 11.9883 13.6 10C13.6 8.0118 11.9882 6.40002 9.99999 6.40002C8.01177 6.40002 6.39999 8.0118 6.39999 10C6.39999 11.9883 8.01177 13.6 9.99999 13.6Z" fill="#111827"/>
</svg>
