<svg version="1.2" baseProfile="tiny-ps" xmlns="http://www.w3.org/2000/svg" viewBox="0 0 403 412" width="403" height="412">
	<title>upload_img-svg</title>
	<style>
		tspan { white-space:pre }
		.shp0 { fill: #000000 } 
	</style>
	<g id="Layer">
		<g id="Layer">
			<path id="Layer" class="shp0" d="M187.37 19.71C243.63 19.66 240.65 19.52 247.94 23.12C250.63 24.41 253.08 26.14 255.47 28.39C259.98 32.57 261.76 35.06 264.78 41.15L267.22 46L304.01 46.14L304.01 46.14C345.45 46.33 342.96 46.14 351.4 50.07C362.81 55.44 371.02 65.8 373.46 77.99C374.09 81.3 374.18 86.76 374.09 120.53L373.94 159.28L371.06 157.03L371.06 157.03C365.55 152.71 355.86 146.53 350.1 143.6L347.85 142.45L347.71 112.62L347.56 82.74L346.46 80.72L346.46 80.72C344.88 77.7 342.77 75.49 340.22 74.25L337.97 73.14L293.89 72.9L249.77 72.66L244.73 61.54L244.73 61.54C239.69 50.5 238.21 48.15 235.47 46.72C234.37 46.14 226.74 46.04 187.51 46.04C140.99 46.04 140.84 46.04 139.21 47.05C138.3 47.58 137.1 48.59 136.57 49.26C136 49.93 133.26 55.49 130.48 61.58L125.4 72.66L81.08 72.9L36.76 73.14L34.56 74.44L34.56 74.44C31.97 75.97 29.67 78.42 28.47 80.96C27.7 82.64 27.65 88.4 27.65 179.38L27.65 276.03L28.66 278.23L28.66 278.23C29.95 281.01 32.69 283.75 35.52 285.04L37.72 286.1L86.26 286.24L134.8 286.39L135.09 288.64L135.09 288.64C135.81 294.2 136.91 300.49 138.2 306.19C139.02 309.65 139.64 312.48 139.64 312.57C139.64 312.67 116.43 312.72 88.08 312.72C31.3 312.72 32.93 312.81 25.64 309.74C14.65 305.19 6.45 296.22 2.42 284.18L1.27 280.82L1.13 181.06L0.98 81.3L2.04 76.79L2.04 76.79C4.63 65.28 12.45 55.64 23.33 50.36C32.16 46.09 29.47 46.33 71.34 46.14L108.32 46L109.72 42.64L109.72 42.64C112.21 36.4 117.44 29.69 122.86 25.61C125.59 23.6 129.91 21.58 133.6 20.62C136.81 19.76 139.74 19.71 187.37 19.71Z" />
			<path id="Layer" class="shp0" d="M54.27 99.28L67.46 99.28L80.65 99.28L80.65 112.71L80.65 126.14L67.46 126.14L54.27 126.14L54.27 112.71L54.27 99.28Z" />
			<path id="Layer" class="shp0" d="M237.92 117.75C242.33 121.44 249.67 128.97 249.24 129.4C249.14 129.55 246.98 130.17 244.59 130.79C238.69 132.28 233.65 133.96 227.08 136.55L221.66 138.66L217.87 135.97L217.87 135.97C199.26 122.93 175.23 122.98 156.67 136.12C152.59 139 146.55 145.04 143.91 148.92C140.84 153.38 137.34 160.92 135.95 166.19C134.8 170.51 134.66 171.8 134.66 179.38C134.61 187.1 134.75 188.16 135.9 192.47C136.62 195.06 137.97 198.76 138.88 200.68C140.56 204.32 144.3 210.51 145.93 212.28C146.84 213.29 146.84 213.34 144.78 218.52C142.28 224.71 140.6 229.79 138.92 236.22C138.25 238.81 137.63 241.01 137.53 241.11C137.1 241.54 130.2 235.02 126.84 231.04C113.31 214.92 106.69 195.78 107.7 175.64C108.04 168.83 109.72 159.81 111.83 153.67C113.94 147.58 118.54 138.61 122.28 133.34C126.21 127.77 134.66 119.14 140.03 115.21C151.49 106.77 166.17 101.11 180.08 99.76C200.46 97.8 222.04 104.51 237.92 117.75Z" />
			<path id="Layer" fill-rule="evenodd" class="shp0" d="M295.86 153.72C322.62 157.22 346.41 168.88 365.36 187.77C375.62 197.99 382.72 207.87 388.86 220.39C396.34 235.74 400.18 251.04 400.85 268.21C403.25 326.63 362.72 378.23 305.12 390.32C296.77 392.1 291.69 392.53 280.65 392.53C268.81 392.53 263.34 391.9 253.08 389.46C210.1 379.19 176.1 345.86 164.87 303.08C162.04 292.48 161.13 284.8 161.08 272.91C161.08 261.35 161.99 253.58 164.54 243.65C174.03 206.53 199.79 176.74 235.33 161.87C244.59 157.99 257.25 154.63 266.98 153.58C273.51 152.81 289.62 152.91 295.86 153.72ZM271.88 179.86C260.56 181.06 250.01 184.13 239.65 189.21C229.14 194.35 222.09 199.57 213.46 208.49C170.29 253.2 183.1 328.02 238.69 355.98C252.36 362.89 265.55 365.96 281.23 365.96C306.17 365.96 328.52 356.84 346.27 339.38C361.33 324.61 370.78 305.91 373.51 285.38C374.37 278.9 374.37 266.91 373.51 260.44C367.95 218.9 335.38 186.1 293.84 180.34C288.47 179.62 276.87 179.38 271.88 179.86Z" />
			<path id="Layer" class="shp0" d="M267.7 206.24L281.04 206.24L294.37 206.24L294.32 232.72L294.32 259.24L321.09 259.38L347.8 259.48L347.71 272.81L347.56 286.1L321.09 286.24L321.09 286.24C296.29 286.34 294.56 286.39 294.47 287.2C294.47 287.63 294.37 299.58 294.37 313.68L294.32 339.34L281.04 339.48L267.7 339.58L267.7 312.96L267.7 286.34L241.08 286.34L214.47 286.34L214.47 272.91L214.47 259.48L241.08 259.48L267.7 259.48L267.7 232.86L267.7 206.24Z" />
		</g>
	</g>
</svg>