<svg width="48" height="48" viewBox="0 0 48 48" fill="none" xmlns="http://www.w3.org/2000/svg">
<rect width="48" height="48" rx="8" fill="#D5FAF1"/>
<path d="M30.1574 30.7966H28.8089C28.8089 30.4796 28.6404 29.7044 28.4989 29.3537H20.428C20.2865 29.7044 20.118 30.4796 20.118 30.7966H18.7695C18.7695 30.7696 18.8977 28.0052 20.1517 28.0052H28.7688C30.0295 28.0052 30.1577 30.7695 30.1577 30.7966H30.1574Z" fill="#078479"/>
<path d="M23.9948 28.652H22.6464V23.9591C18.702 21.5185 16.2681 17.1563 16.2681 12.4837C16.2681 11.1216 16.4703 9.77319 16.875 8.47187L17.0234 8H31.7491L31.8976 8.47187C32.302 9.7665 32.5045 11.1216 32.5045 12.4837C32.5045 17.2911 29.9288 21.7614 25.7891 24.162L25.1147 22.9955C28.8433 20.8379 31.1559 16.8126 31.1559 12.484C31.1559 11.4186 31.021 10.3668 30.7445 9.34879H18.0279C17.7583 10.3668 17.6165 11.4256 17.6165 12.484C17.6165 16.8128 19.9293 20.8383 23.6577 22.9955L23.9947 23.191L23.9948 28.652Z" fill="#078479"/>
<path d="M19.6595 16.3068C19.3224 15.127 19.147 13.9064 19.147 12.6727C19.147 11.3376 19.3492 10.0093 19.7539 8.72827L21.0416 9.13273C20.6775 10.279 20.4954 11.4724 20.4954 12.6658C20.4954 13.7716 20.6505 14.8707 20.9539 15.9225L19.6595 16.3068Z" fill="#078479"/>
<path d="M29.0252 21.3971L28.5938 20.1228C32.4438 18.8215 35.1138 15.0929 35.3966 10.7239H31.6073V9.37549H36.7721L36.7654 10.0565C36.7183 15.2819 33.61 19.8399 29.0248 21.3971L29.0252 21.3971Z" fill="#078479"/>
<path d="M19.7473 21.3971C15.1556 19.8397 12.0473 15.2817 12.0067 10.0497L12 9.36865H17.1647V10.7171H13.3755C13.6587 15.0863 16.3286 18.8148 20.1783 20.116L19.7473 21.3971Z" fill="#078479"/>
<path d="M32.9489 40H15.9849V35.9342H32.9494L32.9489 40ZM17.3334 38.6516H31.6009V37.2828H17.3334V38.6516Z" fill="#078479"/>
<path d="M32.3758 37.276H16.5513V30.4794H32.369L32.3692 37.276H32.3758ZM17.8993 35.9273H31.0204V31.8278L17.8993 31.828V35.9273Z" fill="#078479"/>
<path d="M21.2437 33.2577H27.6894V34.6061H21.2437V33.2577Z" fill="#078479"/>
<path d="M32.9489 40H15.9849V35.9342H32.9494L32.9489 40ZM17.3334 38.6516H31.6009V37.2828H17.3334V38.6516Z" fill="#078479"/>
<path d="M32.3758 37.276H16.5513V30.4794H32.369L32.3692 37.276H32.3758ZM17.8993 35.9273H31.0204V31.8278L17.8993 31.828V35.9273Z" fill="#078479"/>
</svg>
