<svg width="48" height="48" viewBox="0 0 48 48" fill="none" xmlns="http://www.w3.org/2000/svg">
<rect width="48" height="48" rx="8" fill="#D5FAF1"/>
<path fill-rule="evenodd" clip-rule="evenodd" d="M20.1604 10C18.431 10 17.0142 11.4278 17.0142 13.1573V14.3045H10.4385C9.10163 14.3045 8.00799 15.4134 8.00799 16.7464V20.608C7.99734 20.6795 7.99734 20.7525 8.00799 20.8237V35.1915C8.00799 36.5268 9.10371 37.622 10.4385 37.622H37.5606C38.8933 37.622 39.9911 36.5286 39.9911 35.1915V20.8581C40.003 20.7831 40.003 20.706 39.9911 20.631V16.7465C39.9911 15.4115 38.8951 14.3046 37.5606 14.3046H30.9848V13.1574C30.9848 11.4264 29.5656 10.0001 27.8386 10.0001L20.1604 10ZM20.1604 11.4537H27.8382C28.7692 11.4537 29.5305 12.216 29.5305 13.1573V14.3045H18.4681V13.1573C18.4681 12.2147 19.2246 11.4537 20.1603 11.4537H20.1604ZM10.4383 15.7581C19.4874 15.7706 28.519 15.7581 37.5604 15.7581C38.0973 15.7581 38.5372 16.2048 38.5372 16.7464V20.3469C34.3273 23.2038 30.2253 24.7985 26.1009 25.1622V23.8333C26.1009 23.4527 25.7546 23.1064 25.3741 23.1064H22.6254C22.2448 23.1064 21.8985 23.4527 21.8985 23.8333V25.1054C17.8886 24.6615 13.7801 23.0806 9.46222 20.3238V16.7461C9.46222 16.2028 9.89701 15.7579 10.439 15.7579L10.4383 15.7581ZM9.46144 22.0388C13.7029 24.6252 17.8194 26.1478 21.8978 26.5705V28.1037C21.8978 28.4843 22.2441 28.8306 22.6246 28.8306H25.3733C25.7538 28.8306 26.1001 28.4843 26.1001 28.1037V26.6158C30.2789 26.2705 34.3996 24.7443 38.5364 22.0842V35.1909C38.5364 35.7375 38.0984 36.1678 37.5596 36.1678H10.4375C9.89344 36.1678 9.46066 35.7396 9.46066 35.1909L9.46144 22.0388ZM23.3516 24.5603H24.6463V27.3769H23.3516V24.5603Z" fill="#078479"/>
<path fill-rule="evenodd" clip-rule="evenodd" d="M13.0785 18.1994C12.8841 18.1969 12.6967 18.2722 12.5585 18.4088C12.4201 18.5455 12.3423 18.7318 12.3423 18.9262C12.3423 19.1204 12.4201 19.3068 12.5585 19.4434C12.6967 19.5801 12.8841 19.6554 13.0785 19.6528H34.9242C35.1186 19.6554 35.3057 19.5801 35.4441 19.4434C35.5826 19.3068 35.6604 19.1204 35.6604 18.9262C35.6604 18.7318 35.5826 18.5455 35.4441 18.4088C35.3057 18.2722 35.1186 18.1969 34.9242 18.1994H13.0785Z" fill="#078479"/>
</svg>
