<svg width="24" height="25" viewBox="0 0 24 25" fill="none" xmlns="http://www.w3.org/2000/svg">
<path fill-rule="evenodd" clip-rule="evenodd" d="M5.15128 5.65128C5.61991 5.18265 6.3797 5.18265 6.84833 5.65128L11.9998 10.8027L17.1513 5.65128C17.6199 5.18265 18.3797 5.18265 18.8483 5.65128C19.317 6.11991 19.317 6.8797 18.8483 7.34833L13.6969 12.4998L18.8483 17.6513C19.317 18.1199 19.317 18.8797 18.8483 19.3483C18.3797 19.817 17.6199 19.817 17.1513 19.3483L11.9998 14.1969L6.84833 19.3483C6.3797 19.817 5.61991 19.817 5.15128 19.3483C4.68265 18.8797 4.68265 18.1199 5.15128 17.6513L10.3027 12.4998L5.15128 7.34833C4.68265 6.8797 4.68265 6.11991 5.15128 5.65128Z" fill="#111827"/>
</svg>
