<svg width="48" height="48" viewBox="0 0 48 48" fill="none" xmlns="http://www.w3.org/2000/svg">
<rect width="48" height="48" rx="8" fill="#D5FAF1"/>
<path d="M19.5775 15.4949V17.4677L22.8386 15.7895V13.5582L19.5775 15.4947V15.4949ZM19.5775 29.6669L22.8386 27.9886V25.1729L19.5775 26.8511V29.6669ZM23.954 27.9223L28.2521 29.3044V26.4058L23.954 25.0237V27.9223ZM28.2521 30.4722L23.954 29.0907V34.7397H28.2521V30.4722ZM22.8388 29.2395L19.5778 30.9177V34.7396H22.8388V29.2395ZM19.5778 25.6004L22.8388 23.9222V21.1067L19.5778 22.7849V25.6004ZM23.9542 23.8562L28.2524 25.2377V22.3391L23.9542 20.9575V23.8562ZM19.5778 21.534L22.8388 19.8558V17.04L19.5778 18.7185V21.534ZM23.9542 19.7897L28.2524 21.1713V18.2726L23.9542 16.8911V19.7897ZM23.9542 15.7233L28.2524 17.1048V15.0254L23.9542 13.4342V15.7233ZM32.7392 25.0515V34.7397H35.5777V25.9842L32.7392 25.0524V25.0515ZM31.6241 34.7397V25.1439L29.5363 26.1794V34.7399L31.6241 34.7397ZM16.3929 25.1521V34.7397H18.463V26.1792L16.3929 25.1521ZM15.2778 34.7397V25.0461L12.4222 25.9837V34.7392H15.2778V34.7397ZM9.11511 32.52V34.7397H11.3068V32.4868L10.0495 32.1265L9.11483 32.5196L9.11511 32.52ZM8 31.7841L9.98512 30.9486L11.3071 31.3279V25.1788L15.9043 23.6687L18.4633 24.9383V14.8629L23.2863 12L29.3675 14.2521V25.0227L32.0957 23.6692L36.6929 25.1794V31.3284L38.0154 30.9491L40 31.7847V35.8551H8.00082V31.7847L8 31.7841ZM38.8846 34.74V32.5202L37.9504 32.1271L36.6926 32.4874V34.7403H38.8843L38.8846 34.74Z" fill="#078479"/>
</svg>
