<svg width="48" height="48" viewBox="0 0 48 48" fill="none" xmlns="http://www.w3.org/2000/svg">
<rect width="48" height="48" rx="8" fill="#D5FAF1"/>
<path d="M39.4948 21.5622C39.7979 21.4275 40 21.1242 40 20.7875C40 20.4505 39.7979 20.1474 39.4948 20.0128L24.3031 14.0506C24.101 13.9831 23.899 13.9831 23.6969 14.0506L8.50517 20.0464C8.20207 20.1811 8 20.4844 8 20.8211C8 21.1581 8.20207 21.4612 8.50517 21.5958L15.0063 24.1558C14.5686 25.0317 14.299 26.0423 14.299 27.1203V30.4213C14.299 30.7583 14.5011 31.0614 14.8042 31.196L23.6632 34.6991C23.7643 34.7327 23.8653 34.7665 23.9663 34.7665C24.0674 34.7665 24.1684 34.7329 24.2695 34.6991L33.1285 31.196C33.4316 31.0614 33.6337 30.758 33.6337 30.4213V27.1539C33.6337 26.0759 33.3642 25.0655 32.9262 24.156L37.1367 22.5054V25.7054L36.1936 27.6591C35.9915 28.097 36.2946 28.5686 36.7662 28.5686H38.922C39.3935 28.5686 39.6967 28.0634 39.4946 27.6591L38.5514 25.7054L38.5519 21.8992L39.4948 21.5622ZM23.9999 15.701L35.0822 20.08H23.9999C23.5958 20.08 23.2589 20.417 23.2589 20.8211C23.2589 21.2252 23.5958 21.5622 23.9999 21.5622H35.0822L23.9999 25.9076L11.0314 20.7875L23.9999 15.701ZM32.0505 27.1201V29.8484L23.9999 33.0149L15.9493 29.8484V27.1201C15.9493 26.2443 16.1852 25.4358 16.5555 24.7283L23.6967 27.5578C23.7977 27.5914 23.8987 27.6252 23.9998 27.6252C24.1008 27.6252 24.2018 27.5916 24.3029 27.5578L31.444 24.7283C31.8486 25.4358 32.0507 26.2441 32.0507 27.1201H32.0505Z" fill="#078479"/>
</svg>
