<svg width="22" height="22" viewBox="0 0 22 22" fill="none" xmlns="http://www.w3.org/2000/svg">
<path d="M2.75002 2.75L6.04008 6.04006M19.25 19.25L15.9603 15.9603M12.7187 17.2559C12.1621 17.3614 11.5877 17.4167 11.0004 17.4167C6.89593 17.4167 3.42148 14.719 2.25342 11C2.57141 9.98754 3.06032 9.05081 3.68633 8.22358M9.05548 9.05546C9.55313 8.5578 10.2406 8.25 11 8.25C12.5188 8.25 13.75 9.48122 13.75 11C13.75 11.7594 13.4422 12.4469 12.9446 12.9445M9.05548 9.05546L12.9446 12.9445M9.05548 9.05546L6.04008 6.04006M12.9446 12.9445L6.04008 6.04006M12.9446 12.9445L15.9603 15.9603M6.04008 6.04006C7.46992 5.11825 9.1727 4.58333 11.0004 4.58333C15.1049 4.58333 18.5794 7.281 19.7474 11C19.0994 13.0632 17.7417 14.812 15.9603 15.9603" stroke="#078479" stroke-width="2" stroke-linecap="round" stroke-linejoin="round"/>
</svg>
