<svg width="48" height="48" viewBox="0 0 48 48" fill="none" xmlns="http://www.w3.org/2000/svg">
<rect width="48" height="48" rx="8" fill="#D5FAF1"/>
<path d="M38.8031 33.1163L29.5283 23.9694L36.3124 17.1055C36.4298 16.9831 36.5268 16.843 36.6 16.6905L39.7927 10.3053L39.7925 10.305C39.9916 9.90333 40.0124 9.43676 39.8502 9.01875C39.688 8.60074 39.3577 8.27044 38.9397 8.10823C38.522 7.94601 38.0551 7.96686 37.6534 8.16595L31.2682 11.3587C31.1154 11.4316 30.9753 11.5287 30.8532 11.646L24.005 18.4782L22.7599 17.2492V17.2489C22.4625 16.9542 22.0614 16.7879 21.6423 16.7861H21.5466C20.6688 10.0016 14.1238 12.492 9.63787 8.00653C9.63787 12.4604 9.63787 20.4578 16.837 21.4635C16.8036 21.9183 16.9661 22.3655 17.2839 22.6926L18.4971 23.9216L9.22227 33.1164C8.45125 33.859 8.01087 34.8802 8.0002 35.9505C7.98953 37.0209 8.40908 38.0508 9.16481 38.8086C9.92085 39.5665 10.9494 39.9893 12.0197 39.9816C13.09 39.9739 14.1125 39.5364 14.8573 38.7675L24.0042 29.5084L33.1347 38.7511C33.8773 39.5221 34.8985 39.9625 35.9688 39.9732C37.0394 39.9839 38.0691 39.5643 38.8269 38.8086C39.5851 38.0525 40.0076 37.0239 39.9999 35.9537C39.9922 34.8834 39.5547 33.8609 38.7858 33.1161L38.8031 33.1163ZM11.3145 11.1986C12.5489 11.8015 13.837 12.2879 15.1617 12.6513C18.1149 13.5613 19.8229 14.088 19.9506 17.7436L17.7796 19.9626C12.8311 19.6593 11.6178 15.7802 11.3145 11.1988V11.1986ZM18.4179 21.5749L21.6106 18.3822L22.8557 19.6113L19.6629 22.804L18.4179 21.5749ZM13.7248 37.6337C13.1136 38.2032 12.2499 38.413 11.4456 38.1871C10.6412 37.9616 10.0126 37.3331 9.78707 36.5287C9.56125 35.7243 9.77104 34.8605 10.3405 34.2494L12.9745 31.6315L16.3427 34.9998L13.7248 37.6337ZM17.4601 33.8664L14.1078 30.5142L31.9871 12.795L38.3722 9.60227L35.1795 15.9875L17.4601 33.8664ZM37.6695 37.6337H37.6698C37.2208 38.0821 36.612 38.3338 35.9776 38.3338C35.3432 38.3338 34.7344 38.0821 34.2855 37.6337L25.1386 28.3753L28.3313 25.0869L37.6061 34.2495V34.2493C38.0631 34.6897 38.3266 35.2937 38.3384 35.9284C38.3504 36.5628 38.1099 37.1761 37.67 37.6336L37.6695 37.6337Z" fill="#078479"/>
</svg>
